<svg xmlns="http://www.w3.org/2000/svg" viewBox="0 0 24 24"><path fill="currentColor" d="M12 .5A11.5 11.5 0 0 0 .5 12.2c0 5.19 3.36 9.6 8.02 11.15.58.1.79-.26.79-.57v-2.2c-3.26.72-3.95-1.57-3.95-1.57-.53-1.35-1.3-1.71-1.3-1.71-1.06-.74.08-.73.08-.73 1.17.08 1.78 1.2 1.78 1.2 1.04 1.82 2.74 1.3 3.41.99.1-.77.41-1.3.74-1.6-2.6-.3-5.34-1.34-5.34-5.96 0-1.32.46-2.4 1.2-3.25-.12-.3-.52-1.52.11-3.18 0 0 .98-.32 3.22 1.24a11.06 11.06 0 0 1 5.86 0c2.24-1.56 3.22-1.24 3.22-1.24.63 1.66.23 2.88.11 3.18.75.85 1.2 1.93 1.2 3.25 0 4.63-2.74 5.66-5.35 5.96.43.37.81 1.1.81 2.22v3.29c0 .31.21.68.8.57A11.53 11.53 0 0 0 23.5 12.2 11.5 11.5 0 0 0 12 .5Z"/></svg>